<svg xmlns="http://www.w3.org/2000/svg" viewBox="0 0 800 400">
  <defs>
    <linearGradient id="bg" x1="0%" y1="0%" x2="100%" y2="100%">
      <stop offset="0%" style="stop-color:#FEF2F2"/>
      <stop offset="100%" style="stop-color:#FEE2E2"/>
    </linearGradient>
  </defs>
  <rect width="800" height="400" fill="url(#bg)"/>
  <!-- Path A to B -->
  <circle cx="240" cy="200" r="40" fill="#DC2626" opacity="0.1"/>
  <circle cx="240" cy="200" r="25" fill="#DC2626" opacity="0.15"/>
  <text x="240" y="207" text-anchor="middle" font-size="20" font-weight="bold" fill="#DC2626" opacity="0.5" font-family="system-ui">A</text>
  <circle cx="560" cy="200" r="40" fill="#DC2626" opacity="0.1"/>
  <circle cx="560" cy="200" r="25" fill="#DC2626" opacity="0.15"/>
  <text x="560" y="207" text-anchor="middle" font-size="20" font-weight="bold" fill="#DC2626" opacity="0.5" font-family="system-ui">B</text>
  <!-- Arrow path -->
  <path d="M280 200 Q400 140 520 200" stroke="#DC2626" stroke-width="2.5" fill="none" opacity="0.3" stroke-dasharray="8 4"/>
  <!-- Arrow head -->
  <polygon points="515,195 525,200 515,205" fill="#DC2626" opacity="0.4"/>
  <!-- Person icon -->
  <circle cx="400" cy="155" r="14" fill="#DC2626" opacity="0.2"/>
  <ellipse cx="400" cy="180" rx="10" ry="6" fill="#DC2626" opacity="0.15"/>
  <!-- Document icons -->
  <rect x="320" y="260" width="40" height="50" rx="4" fill="#DC2626" opacity="0.1"/>
  <rect x="328" y="270" width="24" height="3" rx="1.5" fill="#DC2626" opacity="0.2"/>
  <rect x="328" y="278" width="18" height="3" rx="1.5" fill="#DC2626" opacity="0.15"/>
  <rect x="328" y="286" width="22" height="3" rx="1.5" fill="#DC2626" opacity="0.15"/>
  <rect x="440" y="260" width="40" height="50" rx="4" fill="#DC2626" opacity="0.1"/>
  <rect x="448" y="270" width="24" height="3" rx="1.5" fill="#DC2626" opacity="0.2"/>
  <rect x="448" y="278" width="18" height="3" rx="1.5" fill="#DC2626" opacity="0.15"/>
  <rect x="448" y="286" width="22" height="3" rx="1.5" fill="#DC2626" opacity="0.15"/>
</svg>
